<?xml version="1.0" standalone="no"?><!DOCTYPE svg PUBLIC "-//W3C//DTD SVG 1.1//EN" "http://www.w3.org/Graphics/SVG/1.1/DTD/svg11.dtd"><svg t="1658295652001" class="icon" viewBox="0 0 1789 1024" version="1.1" xmlns="http://www.w3.org/2000/svg" p-id="3791" xmlns:xlink="http://www.w3.org/1999/xlink" width="349.4140625" height="200"><defs><style type="text/css">@font-face { font-family: feedback-iconfont; src: url("//at.alicdn.com/t/font_1031158_u69w8yhxdu.woff2?t=1630033759944") format("woff2"), url("//at.alicdn.com/t/font_1031158_u69w8yhxdu.woff?t=1630033759944") format("woff"), url("//at.alicdn.com/t/font_1031158_u69w8yhxdu.ttf?t=1630033759944") format("truetype"); }
</style></defs><path d="M668.757709 620.264317h-642.819383c-5.638767 10.14978-10.14978 22.555066-14.660793 32.704846h642.819383c3.38326-10.14978 7.894273-21.427313 14.660793-32.704846zM23.682819 821.004405c7.894273 11.277533 15.788546 22.555066 25.938326 32.704846h642.819384c-10.14978-11.277533-18.044053-21.427313-25.938326-32.704846h-642.819384zM813.110132 419.524229h-642.819383c-10.14978 10.14978-20.299559 21.427313-30.449339 32.704846h642.819383c10.14978-10.14978 20.299559-21.427313 30.449339-32.704846zM1455.929515 482.678414c13.53304 0 25.938326-11.277533 25.938326-25.938326 0-14.660793-12.405286-25.938326-25.938326-25.938326-14.660793 0-25.938326 11.277533-25.938326 25.938326 0 14.660793 12.405286 25.938326 25.938326 25.938326z" p-id="3792"></path><path d="M1598.026432 407.118943c-80.070485-83.453744-164.651982-143.22467-241.339207-172.546256 1.127753-10.14978 2.255507-21.427313 3.38326-31.577092 1.127753-6.76652 1.127753-12.405286 1.127753-19.171806v-19.171807c0-12.405286-2.255507-25.938326-4.511013-38.343612-4.511013-25.938326-13.53304-50.748899-29.321586-73.303965-7.894273-10.14978-16.9163-20.299559-27.06608-29.321586-10.14978-9.022026-22.555066-15.788546-36.088105-20.299559-6.76652-2.255507-14.660793-3.38326-21.427313-3.38326-6.76652 0-15.788546 1.127753-22.555066 3.38326-6.76652 2.255507-14.660793 7.894273-20.29956 14.660793-4.511013 6.76652-7.894273 14.660793-9.022026 22.555066-11.277533-5.638767-23.682819-10.14978-36.088106-13.53304-14.660793-3.38326-30.449339-5.638767-46.237885-5.638766-7.894273 1.127753-15.788546 1.127753-23.68282 3.38326-7.894273 1.127753-15.788546 4.511013-23.682819 10.149779-7.894273 5.638767-13.53304 14.660793-15.788546 23.68282-3.38326 10.14978-1.127753 19.171806 1.127753 24.810572s4.511013 11.277533 7.894273 16.9163c-13.53304 1.127753-27.066079 2.255507-40.599119 6.76652-7.894273 2.255507-14.660793 5.638767-21.427313 11.277533-3.38326 2.255507-5.638767 5.638767-9.022026 9.022026-2.255507 3.38326-4.511013 6.76652-6.76652 11.277533l-3.38326 13.53304v13.53304c1.127753 9.022026 4.511013 16.9163 7.894273 23.682819 7.894273 14.660793 19.171806 24.810573 31.577093 32.704846 11.277533 9.022026 24.810573 14.660793 37.215859 20.299559 20.299559 9.022026 39.471366 14.660793 59.770925 19.171807-60.898678 32.704846-125.180617 83.453744-186.079295 146.607929-108.264317 113.903084-178.185022 237.955947-178.185022 316.898678 0 82.325991 54.132159 157.885463 154.502203 214.273128 96.986784 54.132159 225.550661 84.581498 362.00881 84.581498 136.45815 0 265.022026-30.449339 362.008811-84.581498 100.370044-56.387665 154.502203-131.947137 152.246696-215.400881 0-80.070485-69.920705-204.123348-178.185022-316.898678z m10.149779 504.105727c-92.475771 51.876652-215.400881 80.070485-346.220264 80.070484-25.938326 0-51.876652-1.127753-76.687225-3.38326-59.770925-72.176211-144.352423-190.590308-131.947136-404.863436 9.022026-160.140969 82.325991-254.872247 145.480176-305.621145h7.894273c-25.938326-6.76652-51.876652-13.53304-77.814978-21.427313-25.938326-7.894273-50.748899-18.044053-74.431718-29.321586-11.277533-6.76652-22.555066-12.405286-32.704846-20.299559-10.14978-6.76652-18.044053-15.788546-23.682819-25.938326-2.255507-4.511013-3.38326-9.022026-4.511013-14.660793 0-4.511013 0-10.14978 2.255506-13.53304 3.38326-7.894273 12.405286-14.660793 23.68282-18.044053s23.682819-5.638767 36.088106-5.638766 24.810573 2.255507 37.215859 4.511013c12.405286 2.255507 24.810573 6.76652 37.215859 11.277533 5.638767 2.255507 12.405286 4.511013 18.044052 7.894273 5.638767 3.38326 11.277533 5.638767 16.9163 9.022026 45.110132 24.810573 83.453744 63.154185 113.903084 108.264318-21.427313-49.621145-56.387665-94.731278-103.753304-125.180617-12.405286-7.894273-24.810573-14.660793-37.215859-20.29956-12.405286-5.638767-25.938326-10.14978-39.471366-13.533039-5.638767-1.127753-10.14978-2.255507-15.788546-3.38326-6.76652-6.76652-13.53304-16.9163-15.788546-25.938326-2.255507-5.638767-2.255507-11.277533-1.127754-15.788546 0-3.38326 3.38326-6.76652 6.76652-10.14978 7.894273-6.76652 21.427313-9.022026 33.832599-9.022027 25.938326 0 51.876652 6.76652 76.687225 19.171807 12.405286 5.638767 24.810573 12.405286 34.960352 21.427312 10.14978 9.022026 20.299559 18.044053 29.321586 28.193833 9.022026 10.14978 16.9163 21.427313 23.68282 33.832599 6.76652 12.405286 12.405286 25.938326 16.916299 38.343612s9.022026 27.066079 11.277533 40.599119l2.255507 10.14978c0 3.38326 1.127753 6.76652 1.127753 10.14978 1.127753 6.76652 1.127753 14.660793 2.255507 21.427313 2.255507-14.660793 2.255507-29.321586 2.255506-43.982379 0-14.660793-2.255507-29.321586-5.638766-43.982379-3.38326-13.53304-9.022026-28.193833-14.660793-41.726872s-13.53304-25.938326-22.555066-38.343613c-14.660793-18.044053-31.577093-34.960352-50.748899-47.365638v-9.022027c1.127753-5.638767 2.255507-9.022026 4.511013-12.405286 3.38326-2.255507 5.638767-4.511013 10.14978-6.76652 4.511013-2.255507 9.022026-3.38326 14.660793-3.38326s10.14978 1.127753 15.788546 2.255507c11.277533 2.255507 21.427313 7.894273 30.449339 14.660793 9.022026 6.76652 18.044053 15.788546 24.810573 24.810572 14.660793 19.171806 24.810573 41.726872 31.577093 65.409692 2.255507 11.277533 4.511013 23.682819 6.766519 36.088106 1.127753 6.76652 1.127753 12.405286 2.255507 19.171806 1.127753 6.76652 1.127753 12.405286 1.127753 19.171806 0 24.810573-1.127753 50.748899-4.511013 75.559471 0-3.38326 1.127753-6.76652 2.255507-10.149779 69.920705 28.193833 148.863436 84.581498 223.295154 162.396475 101.497797 106.008811 169.162996 223.295154 170.290749 294.343613 0 68.792952-49.621145 134.202643-138.713657 184.951542z" p-id="3793"></path><path d="M1609.303965 677.779736c0-1.127753 0-1.127753 0 0l-1.127754-3.38326s-1.127753-1.127753-1.127753-2.255507-1.127753-1.127753-1.127753-2.255506c-1.127753 0-2.255507-2.255507-2.255507-2.255507-2.255507-2.255507-4.511013-3.38326-5.638766-4.511013-3.38326-2.255507-6.76652-3.38326-9.022027-5.638767-5.638767-3.38326-11.277533-5.638767-16.916299-9.022026-11.277533-5.638767-21.427313-11.277533-32.704846-15.788546-20.299559-9.022026-41.726872-18.044053-65.409692-27.06608-48.493392-19.171806-92.475771-33.832599-133.07489-45.110132-4.511013 0-7.894273 2.255507-10.149779 5.638767-2.255507 3.38326 0 7.894273 3.38326 10.149779 41.726872 22.555066 85.709251 42.854626 125.180616 62.026432l62.026432 29.321586 5.638767 2.255507c9.022026 4.511013 16.9163 9.022026 25.938326 13.533039 0 0 1.127753 1.127753 2.255506 1.127754-1.127753 1.127753-2.255507 2.255507-3.38326 2.255506-10.14978 5.638767-20.299559 10.14978-30.449339 14.660793l-54.132159 23.682819-25.938326 11.277533c-37.215859 15.788546-74.431718 31.577093-111.647577 48.493393-4.511013 1.127753-5.638767 6.76652-4.511013 10.149779 1.127753 3.38326 4.511013 5.638767 7.894273 5.638767h2.255507c41.726872-9.022026 85.709251-22.555066 135.330396-38.343613 23.682819-7.894273 46.237885-15.788546 66.537445-24.810572 11.277533-4.511013 22.555066-9.022026 32.704846-14.660793 4.511013-2.255507 11.277533-5.638767 16.9163-9.022027 3.38326-2.255507 5.638767-4.511013 9.022026-6.766519 1.127753-2.255507 3.38326-3.38326 5.638767-5.638767 1.127753 0 2.255507-1.127753 3.38326-3.38326 1.127753-1.127753 3.38326-4.511013 4.511013-9.022026v-4.511013s0-1.127753 1.127753 0c0-2.255507 0-3.38326-1.127753-6.76652z" p-id="3794"></path></svg>